<svg width="66" height="10" viewBox="0 0 66 10" fill="none" xmlns="http://www.w3.org/2000/svg">
<path d="M0.204545 0.272727H2.84659L4.55114 3.81818H4.61932L6.32386 0.272727H8.96591L5.76136 6.25568V9H3.40909V6.25568L0.204545 0.272727ZM11.2617 9.11932C10.5515 9.11932 9.94354 8.97869 9.43786 8.69744C8.93217 8.41335 8.54439 8.01847 8.2745 7.51278C8.00462 7.00426 7.86967 6.41477 7.86967 5.74432C7.86967 5.07386 8.00462 4.4858 8.2745 3.98011C8.54439 3.47159 8.93217 3.0767 9.43786 2.79545C9.94354 2.51136 10.5515 2.36932 11.2617 2.36932C11.9719 2.36932 12.5799 2.51136 13.0856 2.79545C13.5913 3.0767 13.979 3.47159 14.2489 3.98011C14.5188 4.4858 14.6538 5.07386 14.6538 5.74432C14.6538 6.41477 14.5188 7.00426 14.2489 7.51278C13.979 8.01847 13.5913 8.41335 13.0856 8.69744C12.5799 8.97869 11.9719 9.11932 11.2617 9.11932ZM11.2788 7.38068C11.4776 7.38068 11.6495 7.31392 11.7944 7.1804C11.9393 7.04687 12.0515 6.85653 12.131 6.60938C12.2106 6.36222 12.2504 6.06818 12.2504 5.72727C12.2504 5.38352 12.2106 5.08949 12.131 4.84517C12.0515 4.59801 11.9393 4.40767 11.7944 4.27415C11.6495 4.14062 11.4776 4.07386 11.2788 4.07386C11.0685 4.07386 10.8881 4.14062 10.7376 4.27415C10.587 4.40767 10.4719 4.59801 10.3924 4.84517C10.3129 5.08949 10.2731 5.38352 10.2731 5.72727C10.2731 6.06818 10.3129 6.36222 10.3924 6.60938C10.4719 6.85653 10.587 7.04687 10.7376 7.1804C10.8881 7.31392 11.0685 7.38068 11.2788 7.38068ZM19.8526 6.13636V2.45455H22.2049V9H19.9719V7.75568H19.9038C19.7617 8.1733 19.5131 8.5 19.158 8.7358C18.8029 8.96875 18.381 9.08523 17.8924 9.08523C17.435 9.08523 17.0344 8.98011 16.6907 8.76989C16.3498 8.55966 16.0842 8.26989 15.8938 7.90057C15.7063 7.53125 15.6112 7.10795 15.6083 6.63068V2.45455H17.9606V6.13636C17.9634 6.46023 18.0458 6.71449 18.2077 6.89915C18.3725 7.08381 18.6026 7.17614 18.8981 7.17614C19.0941 7.17614 19.2631 7.13494 19.4052 7.05256C19.5501 6.96733 19.6609 6.84801 19.7376 6.6946C19.8171 6.53835 19.8555 6.35227 19.8526 6.13636ZM23.4013 9V2.45455H25.6854V3.69886H25.7536C25.8729 3.23864 26.0618 2.90199 26.3203 2.68892C26.5817 2.47585 26.8871 2.36932 27.2365 2.36932C27.3388 2.36932 27.4396 2.37784 27.5391 2.39489C27.6413 2.40909 27.7393 2.4304 27.8331 2.45881V4.46591C27.7166 4.42614 27.5732 4.39631 27.4027 4.37642C27.2322 4.35653 27.0859 4.34659 26.9638 4.34659C26.7337 4.34659 26.5263 4.39915 26.3416 4.50426C26.1598 4.60653 26.0163 4.75142 25.9112 4.93892C25.8061 5.12358 25.7536 5.34091 25.7536 5.59091V9H23.4013ZM30.7223 2.18182V0.272727H38.3075V2.18182H35.6825V9H33.3473V2.18182H30.7223ZM40.1665 9.10227C39.7489 9.10227 39.3796 9.03409 39.0586 8.89773C38.7404 8.75852 38.4904 8.5483 38.3086 8.26705C38.1268 7.9858 38.0359 7.62784 38.0359 7.19318C38.0359 6.83523 38.0969 6.52983 38.2191 6.27699C38.3413 6.02131 38.5117 5.8125 38.7305 5.65057C38.9492 5.48864 39.2035 5.36506 39.4933 5.27983C39.7859 5.1946 40.1012 5.1392 40.4393 5.11364C40.8058 5.08523 41.0998 5.05114 41.3214 5.01136C41.5458 4.96875 41.7077 4.91051 41.8072 4.83665C41.9066 4.75994 41.9563 4.65909 41.9563 4.53409V4.51705C41.9563 4.34659 41.891 4.21591 41.7603 4.125C41.6296 4.03409 41.462 3.98864 41.2575 3.98864C41.033 3.98864 40.8498 4.03835 40.7077 4.13778C40.5685 4.23437 40.4847 4.38352 40.4563 4.58523H38.2915C38.32 4.1875 38.4464 3.82102 38.6708 3.4858C38.8981 3.14773 39.229 2.87784 39.6637 2.67614C40.0984 2.47159 40.641 2.36932 41.2915 2.36932C41.7603 2.36932 42.1808 2.42472 42.5529 2.53551C42.9251 2.64347 43.2418 2.79545 43.5032 2.99148C43.7646 3.18466 43.9634 3.41193 44.0998 3.6733C44.239 3.93182 44.3086 4.21307 44.3086 4.51705V9H42.1097V8.07955H42.0586C41.9279 8.32386 41.7688 8.52131 41.5813 8.67188C41.3967 8.82244 41.185 8.93182 40.9464 9C40.7106 9.06818 40.4506 9.10227 40.1665 9.10227ZM40.9336 7.61932C41.1126 7.61932 41.2802 7.58239 41.4364 7.50852C41.5955 7.43466 41.7248 7.32812 41.8242 7.18892C41.9237 7.04972 41.9734 6.88068 41.9734 6.68182V6.13636C41.9109 6.16193 41.8441 6.18608 41.7731 6.20881C41.7049 6.23153 41.631 6.25284 41.5515 6.27273C41.4748 6.29261 41.3924 6.31108 41.3043 6.32812C41.2191 6.34517 41.1296 6.3608 41.0359 6.375C40.854 6.40341 40.7049 6.45028 40.5884 6.51562C40.4748 6.57812 40.3896 6.65625 40.3327 6.75C40.2788 6.84091 40.2518 6.94318 40.2518 7.05682C40.2518 7.23864 40.3157 7.37784 40.4435 7.47443C40.5714 7.57102 40.7347 7.61932 40.9336 7.61932ZM51.4155 4.58523H49.2507C49.2393 4.4517 49.1925 4.33665 49.1101 4.24006C49.0277 4.14347 48.9212 4.0696 48.7905 4.01847C48.6626 3.96449 48.5206 3.9375 48.3643 3.9375C48.1626 3.9375 47.9893 3.97443 47.8445 4.0483C47.6996 4.12216 47.6286 4.22727 47.6314 4.36364C47.6286 4.46023 47.6697 4.54972 47.755 4.6321C47.843 4.71449 48.0121 4.77841 48.2621 4.82386L49.5916 5.0625C50.2621 5.18466 50.7607 5.39062 51.0874 5.6804C51.4169 5.96733 51.5831 6.35227 51.5859 6.83523C51.5831 7.30114 51.4439 7.70597 51.1683 8.04972C50.8956 8.39062 50.522 8.65483 50.0476 8.84233C49.576 9.02699 49.0376 9.11932 48.4325 9.11932C47.4325 9.11932 46.6499 8.91477 46.0845 8.50568C45.522 8.09659 45.2081 7.55682 45.1428 6.88636H47.478C47.5092 7.09375 47.6115 7.25426 47.7848 7.3679C47.9609 7.47869 48.1825 7.53409 48.4496 7.53409C48.6655 7.53409 48.843 7.49716 48.9822 7.4233C49.1243 7.34943 49.1967 7.24432 49.1996 7.10795C49.1967 6.98295 49.1342 6.88352 49.0121 6.80966C48.8928 6.7358 48.7053 6.67614 48.4496 6.63068L47.2905 6.42614C46.6229 6.30966 46.1229 6.08807 45.7905 5.76136C45.4581 5.43466 45.2933 5.0142 45.2962 4.5C45.2933 4.04545 45.4126 3.66051 45.6541 3.34517C45.8984 3.02699 46.2464 2.78551 46.6982 2.62074C47.1527 2.45312 47.6911 2.36932 48.3132 2.36932C49.2592 2.36932 50.005 2.56534 50.5504 2.95739C51.0987 3.34943 51.3871 3.89205 51.4155 4.58523ZM54.6009 7.44886L54.6179 4.65341H54.9247L56.5099 2.45455H59.152L56.4929 5.88068H55.8281L54.6009 7.44886ZM52.4872 9V0.272727H54.8395V9H52.4872ZM56.527 9L55.027 6.40909L56.5611 4.73864L59.2202 9H56.527ZM65.7475 4.58523H63.5827C63.5714 4.4517 63.5245 4.33665 63.4421 4.24006C63.3597 4.14347 63.2532 4.0696 63.1225 4.01847C62.9947 3.96449 62.8526 3.9375 62.6964 3.9375C62.4947 3.9375 62.3214 3.97443 62.1765 4.0483C62.0316 4.12216 61.9606 4.22727 61.9634 4.36364C61.9606 4.46023 62.0018 4.54972 62.087 4.6321C62.1751 4.71449 62.3441 4.77841 62.5941 4.82386L63.9237 5.0625C64.5941 5.18466 65.0927 5.39062 65.4194 5.6804C65.7489 5.96733 65.9151 6.35227 65.918 6.83523C65.9151 7.30114 65.7759 7.70597 65.5004 8.04972C65.2276 8.39062 64.854 8.65483 64.3796 8.84233C63.908 9.02699 63.3697 9.11932 62.7646 9.11932C61.7646 9.11932 60.9819 8.91477 60.4165 8.50568C59.854 8.09659 59.5401 7.55682 59.4748 6.88636H61.81C61.8413 7.09375 61.9435 7.25426 62.1168 7.3679C62.293 7.47869 62.5146 7.53409 62.7816 7.53409C62.9975 7.53409 63.1751 7.49716 63.3143 7.4233C63.4563 7.34943 63.5288 7.24432 63.5316 7.10795C63.5288 6.98295 63.4663 6.88352 63.3441 6.80966C63.2248 6.7358 63.0373 6.67614 62.7816 6.63068L61.6225 6.42614C60.9549 6.30966 60.4549 6.08807 60.1225 5.76136C59.7901 5.43466 59.6254 5.0142 59.6282 4.5C59.6254 4.04545 59.7447 3.66051 59.9862 3.34517C60.2305 3.02699 60.5785 2.78551 61.0302 2.62074C61.4847 2.45312 62.0231 2.36932 62.6452 2.36932C63.5913 2.36932 64.337 2.56534 64.8825 2.95739C65.4308 3.34943 65.7191 3.89205 65.7475 4.58523Z" fill="#5BFF23"/>
</svg>
